<?xml version="1.0" encoding="utf-8"?><svg viewBox="0 0 32 32" xmlns="http://www.w3.org/2000/svg" xmlns:xlink="http://www.w3.org/1999/xlink"><style>:root>svg{display:none}:root>svg:target{display:block}</style><svg viewBox="0 0 20 20" id="alert" xmlns="http://www.w3.org/2000/svg"><g clip-path="url(#aaa)"><path d="M9.999-.004a7.49 7.49 0 0 1 7.496 7.25l.004.25v4.097l1.38 3.156a1.25 1.25 0 0 1-1.145 1.751l-4.735.002a3 3 0 0 1-5.995.176l-.006-.179-4.724.001a1.25 1.25 0 0 1-1.147-1.748L2.5 11.594V7.496c0-4.155 3.352-7.5 7.5-7.5Zm1.5 16.503-3 .003a1.5 1.5 0 0 0 2.993.144l.006-.147Zm-1.5-15.003c-3.32 0-6 2.675-6 6v4.41L2.655 15H17.35L16 11.907V7.509l-.004-.225A5.988 5.988 0 0 0 10 1.496Z"/></g><defs><clipPath id="aaa"><path fill="#fff" d="M0 0h20v20H0z"/></clipPath></defs></svg><svg viewBox="0 0 16 16" id="arrow2_home" xmlns="http://www.w3.org/2000/svg"><path d="M4.146 9.354a.5.5 0 0 0 .708 0L8 6.207l3.146 3.147a.5.5 0 0 0 .708-.708l-3.5-3.5a.5.5 0 0 0-.708 0l-3.5 3.5a.5.5 0 0 0 0 .708Z"/></svg><svg viewBox="0 0 20 20" id="arrow_home" xmlns="http://www.w3.org/2000/svg"><path d="M10.837 3.13a.5.5 0 0 0-.674.74L16.33 9.5H2.5a.5.5 0 0 0 0 1h13.828l-6.165 5.628a.5.5 0 0 0 .674.739l6.916-6.314a.747.747 0 0 0 0-1.108L10.837 3.13Z"/></svg><svg viewBox="0 0 20 20" id="basket" xmlns="http://www.w3.org/2000/svg"><path d="M8.5 4h3a1.5 1.5 0 0 0-3 0Zm-1 0a2.5 2.5 0 0 1 5 0h5a.5.5 0 0 1 0 1h-1.054l-1.194 10.344A3 3 0 0 1 12.272 18H7.728a3 3 0 0 1-2.98-2.656L3.554 5H2.5a.5.5 0 0 1 0-1h5ZM5.741 15.23A2 2 0 0 0 7.728 17h4.544a2 2 0 0 0 1.987-1.77L15.439 5H4.561l1.18 10.23ZM8.5 7.5A.5.5 0 0 1 9 8v6a.5.5 0 0 1-1 0V8a.5.5 0 0 1 .5-.5ZM12 8a.5.5 0 0 0-1 0v6a.5.5 0 0 0 1 0V8Z"/></svg><svg viewBox="0 0 20 20" id="beach" xmlns="http://www.w3.org/2000/svg"><path d="M8.263 4.608a5.214 5.214 0 0 1 9.032 5.214l-.197.34a.5.5 0 0 1-.683.183l-3.465-2-1.931 3.38c1.34.407 2.492 1.332 3.315 2.528a1.498 1.498 0 0 0-1.01.306c-.96-1.252-2.336-2.059-3.824-2.059s-2.864.807-3.824 2.06a1.498 1.498 0 0 0-1.01-.307C5.786 12.625 7.513 11.5 9.5 11.5c.163 0 .324.008.483.022l2.101-3.677L8.25 5.63a.5.5 0 0 1-.183-.683l.196-.34Zm.921.408 1.703.983a.611.611 0 0 1 .011-.017c.536-.74 1.04-1.309 1.699-1.808a9.21 9.21 0 0 1 1.574-.937 4.216 4.216 0 0 0-4.987 1.779Zm4.82 2.782c.465-.816.688-1.46.766-2.085.063-.503.035-1.015-.059-1.626-.629.298-1.106.578-1.51.884-.536.406-.963.873-1.444 1.53l2.247 1.297Zm.866.5 1.611.93a4.216 4.216 0 0 0-.742-5.014c.071.56.09 1.088.023 1.623-.099.791-.38 1.563-.892 2.461Zm-9.632 7.295a.5.5 0 0 0-.96.039c-.17.694-.492 1.075-.859 1.296-.384.232-.873.322-1.419.322a.5.5 0 0 0 0 1c.638 0 1.333-.102 1.936-.465a2.66 2.66 0 0 0 .884-.873c1.193 1.521 3.522 1.514 4.68-.016 1.177 1.554 3.56 1.537 4.735-.057A3.46 3.46 0 0 0 17 18.25a.5.5 0 1 0 0-1c-.983 0-1.963-.64-2.287-1.652a.5.5 0 0 0-.95-.005c-.643 1.939-3.16 1.914-3.79.08a.5.5 0 0 0-.946 0c-.63 1.834-3.147 1.859-3.79-.08Z"/></svg><svg viewBox="0 0 24 24" id="briefcase" xmlns="http://www.w3.org/2000/svg"><path d="M10.25 3.5h3.5a.75.75 0 0 1 .75.75V6h-5V4.25a.75.75 0 0 1 .75-.75ZM8 4.25V6H6.25A3.25 3.25 0 0 0 3 9.25v7.5A3.25 3.25 0 0 0 6.25 20h11.5A3.25 3.25 0 0 0 21 16.75v-7.5A3.25 3.25 0 0 0 17.75 6H16V4.25A2.25 2.25 0 0 0 13.75 2h-3.5A2.25 2.25 0 0 0 8 4.25Zm11.5 5v1.5a1.75 1.75 0 0 1-1.75 1.75H14V12a1 1 0 0 0-1-1h-2a1 1 0 0 0-1 1v.5H6.25a1.75 1.75 0 0 1-1.75-1.75v-1.5c0-.966.784-1.75 1.75-1.75h11.5c.966 0 1.75.784 1.75 1.75Zm0 4.24v3.26a1.75 1.75 0 0 1-1.75 1.75H6.25a1.75 1.75 0 0 1-1.75-1.75v-3.26c.505.322 1.106.51 1.75.51H10a1 1 0 0 0 1 1h2a1 1 0 0 0 1-1h3.75c.644 0 1.245-.188 1.75-.51Z"/></svg><svg viewBox="0 0 20 20" id="calendar" xmlns="http://www.w3.org/2000/svg"><path d="M14.5 3A2.5 2.5 0 0 1 17 5.5v4.1a5.465 5.465 0 0 0-1-.393V7H4v7.5A1.5 1.5 0 0 0 5.5 16h3.707c.099.349.23.683.393 1H5.5A2.5 2.5 0 0 1 3 14.5v-9A2.5 2.5 0 0 1 5.5 3h9Zm0 1h-9A1.5 1.5 0 0 0 4 5.5V6h12v-.5A1.5 1.5 0 0 0 14.5 4ZM19 14.5a4.5 4.5 0 1 1-9 0 4.5 4.5 0 0 1 9 0Zm-2.146-1.854a.5.5 0 0 0-.708 0L13.5 15.293l-.646-.647a.5.5 0 0 0-.708.708l1 1a.5.5 0 0 0 .708 0l3-3a.5.5 0 0 0 0-.708Z"/></svg><svg fill="none" viewBox="0 0 20 20" id="cancel" xmlns="http://www.w3.org/2000/svg"><path d="M6 3a3 3 0 0 0-3 3v8a3 3 0 0 0 3 3h3.6a5.465 5.465 0 0 1-.393-1H6a2 2 0 0 1-2-2V6a2 2 0 0 1 2-2h8a2 2 0 0 1 2 2v3.207c.349.099.683.23 1 .393V6a3 3 0 0 0-3-3H6Zm8.5 16a4.5 4.5 0 1 0 0-9 4.5 4.5 0 0 0 0 9Zm1.854-6.354a.5.5 0 0 1 0 .708L15.207 14.5l1.147 1.146a.5.5 0 0 1-.708.708L14.5 15.207l-1.146 1.147a.5.5 0 0 1-.708-.708l1.147-1.146-1.147-1.146a.5.5 0 0 1 .708-.708l1.146 1.147 1.146-1.147a.5.5 0 0 1 .708 0Z" fill="#424242"/></svg><svg viewBox="0 0 24 24" id="certificate" xmlns="http://www.w3.org/2000/svg"><path d="M2.001 5.75A2.75 2.75 0 0 1 4.751 3h14.5a2.75 2.75 0 0 1 2.75 2.75v9.5a2.75 2.75 0 0 1-2.75 2.75h-9.25v-1c.12-.16.23-.326.331-.5h8.919c.69 0 1.25-.56 1.25-1.25v-9.5c0-.69-.56-1.25-1.25-1.25h-14.5c-.69 0-1.25.56-1.25 1.25v3.919a5.025 5.025 0 0 0-1.5 1.33V5.75ZM6.751 7a.75.75 0 1 0 0 1.5h10.5a.75.75 0 0 0 0-1.5h-10.5Zm6 5a.75.75 0 0 0 0 1.5h4.5a.75.75 0 0 0 0-1.5h-4.5Zm-6.75-2a4 4 0 1 0 0 8.001A4 4 0 0 0 6 10Zm3 8.001c-.835.628-1.874 1-3 1a4.978 4.978 0 0 1-3-.998v3.246c0 .57.605.92 1.09.669l.09-.055L6 20.591l1.82 1.272a.75.75 0 0 0 1.172-.51L9 21.249 9.002 18Z"/></svg><svg viewBox="0 0 20 20" id="chat-multi" xmlns="http://www.w3.org/2000/svg"><path d="M8.538 2a6.5 6.5 0 0 0-5.674 9.672l-.796 2.082a1 1 0 0 0 1.204 1.32l2.487-.697A6.5 6.5 0 1 0 8.539 2Zm-5.5 6.5a5.5 5.5 0 1 1 2.998 4.9l-.174-.09-2.86.801.969-2.536-.128-.21A5.472 5.472 0 0 1 3.038 8.5Zm8.463 9.5a6.485 6.485 0 0 1-4.927-2.26c.563.153 1.153.241 1.76.257A5.475 5.475 0 0 0 11.5 17c.902 0 1.752-.217 2.502-.6l.174-.09 2.86.801-.969-2.536.128-.21c.51-.834.805-1.814.805-2.865a5.474 5.474 0 0 0-.964-3.11 7.51 7.51 0 0 0-.235-1.763 6.484 6.484 0 0 1 2.199 4.873c0 1.151-.3 2.233-.825 3.172l.795 2.082a1 1 0 0 1-1.204 1.32l-2.487-.697c-.843.4-1.786.623-2.78.623Z"/></svg><svg viewBox="0 0 20 20" id="chat-off" xmlns="http://www.w3.org/2000/svg"><path d="M4 4.708 2.147 2.854a.5.5 0 1 1 .708-.708l1.854 1.855.708.708 9.875 9.875.708.708 1.855 1.854a.5.5 0 0 1-.708.708l-1.854-1.855A7.97 7.97 0 0 1 10 18a7.968 7.968 0 0 1-3.613-.86l-.121-.065-3.645.91a.5.5 0 0 1-.62-.441v-.082l.014-.083.91-3.644-.063-.12a7.95 7.95 0 0 1-.83-2.887l-.025-.382L2 10a7.97 7.97 0 0 1 2-5.292ZM14.585 15.29l-3.616-3.616a.5.5 0 0 1-.378.317L10.5 12h-3a.5.5 0 0 1-.09-.992L7.5 11h2.793l-2-2H7.5a.5.5 0 0 1-.175-.968L4.709 5.416A6.973 6.973 0 0 0 3 10c0 1.217.31 2.388.894 3.425a.5.5 0 0 1 .063.272l-.014.094-.756 3.021 3.024-.754a.502.502 0 0 1 .188-.01l.091.021.087.039A6.965 6.965 0 0 0 10 17a6.973 6.973 0 0 0 4.584-1.71ZM16.618 14.496l-.722-.721a7 7 0 0 0-9.67-9.67l-.722-.723a8 8 0 0 1 11.114 11.114Z"/><path d="M12.5 9h-1.379l-1-1H12.5a.5.5 0 0 1 .09.992L12.5 9Z"/></svg><svg viewBox="0 0 20 20" id="checkmark" xmlns="http://www.w3.org/2000/svg"><path d="M3.374 10.168a.5.5 0 0 0-.748.664l4 4.5a.5.5 0 0 0 .728.022l10.5-10.5a.5.5 0 0 0-.707-.708L7.02 14.271l-3.647-4.103Z"/></svg><svg fill="none" viewBox="0 0 20 20" id="chevron" xmlns="http://www.w3.org/2000/svg"><path d="M11.354 6.146a.5.5 0 0 1 0 .708L8.207 10l3.147 3.146a.5.5 0 0 1-.708.708l-3.5-3.5a.5.5 0 0 1 0-.708l3.5-3.5a.5.5 0 0 1 .708 0Z" fill="#424242"/></svg><svg viewBox="0 0 12 12" id="clock" xmlns="http://www.w3.org/2000/svg"><path d="M6 1a5 5 0 1 1 0 10A5 5 0 0 1 6 1Zm0 1a4 4 0 1 0 0 8 4 4 0 0 0 0-8Zm-.5 1.5a.5.5 0 0 1 .492.41L6 4v2h1.5a.5.5 0 0 1 .09.992L7.5 7h-2a.5.5 0 0 1-.492-.41L5 6.5V4a.5.5 0 0 1 .5-.5Z"/></svg><svg viewBox="0 0 20 20" id="close" xmlns="http://www.w3.org/2000/svg"><path d="m4.089 4.216.057-.07a.5.5 0 0 1 .638-.057l.07.057L10 9.293l5.146-5.147a.5.5 0 0 1 .638-.057l.07.057a.5.5 0 0 1 .057.638l-.057.07L10.707 10l5.147 5.146a.5.5 0 0 1 .057.638l-.057.07a.5.5 0 0 1-.638.057l-.07-.057L10 10.707l-5.146 5.147a.5.5 0 0 1-.638.057l-.07-.057a.5.5 0 0 1-.057-.638l.057-.07L9.293 10 4.146 4.854a.5.5 0 0 1-.057-.638l.057-.07-.057.07Z"/></svg><svg fill="none" viewBox="0 0 32 32" id="code" xmlns="http://www.w3.org/2000/svg"><path d="M16 2c7.732 0 14 6.268 14 14s-6.268 14-14 14S2 23.732 2 16 8.268 2 16 2Zm12 14c0-6.627-5.373-12-12-12S4 9.373 4 16s5.373 12 12 12 12-5.373 12-12Z" fill="#0041DC"/><path d="M16 11v12M9 11h14m-10 7h6m-6 3h6" stroke="#0041DC" stroke-width="2" stroke-linecap="round"/></svg><svg fill="none" viewBox="0 0 20 20" id="comment" xmlns="http://www.w3.org/2000/svg"><path d="M10.48 13.842h4.92c.896 0 1.6-.713 1.6-1.566v-6.71C17 4.713 16.296 4 15.4 4H4.6C3.704 4 3 4.713 3 5.566v6.71c0 .853.704 1.566 1.6 1.566h1.6V17h.003l.002-.001 4.276-3.157ZM6.8 17.803a1.009 1.009 0 0 1-1.4-.199.978.978 0 0 1-.199-.59v-2.172h-.6c-1.436 0-2.6-1.149-2.6-2.566v-6.71C2 4.149 3.164 3 4.6 3h10.8C16.836 3 18 4.149 18 5.566v6.71c0 1.418-1.164 2.566-2.6 2.566h-4.59l-4.011 2.961Z" fill="#242424"/></svg><svg viewBox="0 0 20 20" id="description" xmlns="http://www.w3.org/2000/svg"><path d="M5 7a1 1 0 0 1 1-1h8a1 1 0 0 1 1 1v2a1 1 0 0 1-1 1H6a1 1 0 0 1-1-1V7Zm9 0H6v2h8V7Zm-2 4a1 1 0 0 0-1 1v1a1 1 0 0 0 1 1h2a1 1 0 0 0 1-1v-1a1 1 0 0 0-1-1h-2Zm0 1h2v1h-2v-1Zm-7-.5a.5.5 0 0 1 .5-.5h4a.5.5 0 0 1 0 1h-4a.5.5 0 0 1-.5-.5Zm.5 1.5a.5.5 0 0 0 0 1h4a.5.5 0 0 0 0-1h-4ZM3 6a3 3 0 0 1 3-3h8a3 3 0 0 1 3 3v8a3 3 0 0 1-3 3H6a3 3 0 0 1-3-3V6Zm3-2a2 2 0 0 0-2 2v8a2 2 0 0 0 2 2h8a2 2 0 0 0 2-2V6a2 2 0 0 0-2-2H6Z"/></svg><svg viewBox="0 0 20 20" id="dialog" xmlns="http://www.w3.org/2000/svg"><path d="M10 2a8 8 0 1 1-3.613 15.14l-.121-.065-3.645.91a.5.5 0 0 1-.62-.441v-.082l.014-.083.91-3.644-.063-.12a7.95 7.95 0 0 1-.83-2.887l-.025-.382L2 10a8 8 0 0 1 8-8Zm0 1a7 7 0 0 0-6.106 10.425.5.5 0 0 1 .063.272l-.014.094-.756 3.021 3.024-.754a.502.502 0 0 1 .188-.01l.091.021.087.039A7 7 0 1 0 10 3Zm.5 8a.5.5 0 0 1 .09.992L10.5 12h-3a.5.5 0 0 1-.09-.992L7.5 11h3Zm2-3a.5.5 0 0 1 .09.992L12.5 9h-5a.5.5 0 0 1-.09-.992L7.5 8h5Z"/></svg><svg fill="none" viewBox="0 0 20 20" id="double-arrow" xmlns="http://www.w3.org/2000/svg"><path d="M14.146 9.146a.5.5 0 0 1 .708.708l-4.5 4.5a.5.5 0 0 1-.708 0l-4.5-4.5a.5.5 0 1 1 .708-.708L10 13.293l4.146-4.147Zm0-4a.5.5 0 0 1 .708.708l-4.5 4.5a.5.5 0 0 1-.708 0l-4.5-4.5a.5.5 0 1 1 .708-.708L10 9.293l4.146-4.147Z" fill="#242424"/></svg><svg viewBox="0 0 20 20" id="download" xmlns="http://www.w3.org/2000/svg"><path d="M15.5 16.999a.5.5 0 0 1 .09.992l-.09.008h-11a.5.5 0 0 1-.09-.992l.09-.008h11ZM10 2a.5.5 0 0 1 .492.41l.008.09-.004 11.794 3.645-3.648a.5.5 0 0 1 .638-.059l.07.058a.5.5 0 0 1 .058.638l-.058.07-4.492 4.5a.497.497 0 0 1-.255.136l-.106.01a.5.5 0 0 1-.395-.194l-4.457-4.452a.5.5 0 0 1 .637-.766l.07.058 3.645 3.641L9.5 2.501A.5.5 0 0 1 10 2Z"/></svg><svg viewBox="0 0 20 20" id="edit" xmlns="http://www.w3.org/2000/svg"><path d="M17.18 2.927a2.975 2.975 0 0 0-4.26-.054l-9.375 9.375a2.438 2.438 0 0 0-.655 1.194l-.878 3.95a.5.5 0 0 0 .597.597l3.926-.873a2.518 2.518 0 0 0 1.234-.678l9.358-9.358a2.975 2.975 0 0 0 .052-4.153Zm-3.553.653a1.975 1.975 0 0 1 2.793 2.793l-.671.671-2.793-2.792.671-.672ZM12.25 4.96l2.793 2.792-7.98 7.98a1.518 1.518 0 0 1-.744.409l-3.16.702.708-3.183c.059-.267.193-.511.387-.704l7.996-7.996Z"/></svg><svg viewBox="0 0 24 24" id="employees" xmlns="http://www.w3.org/2000/svg"><path d="M14.754 10c.966 0 1.75.784 1.75 1.75v4.749a4.501 4.501 0 0 1-9.002 0V11.75c0-.966.783-1.75 1.75-1.75h5.502Zm0 1.5H9.252a.25.25 0 0 0-.25.25v4.749a3.001 3.001 0 0 0 6.002 0V11.75a.25.25 0 0 0-.25-.25ZM3.75 10h3.381a2.738 2.738 0 0 0-.618 1.5H3.75a.25.25 0 0 0-.25.25v3.249a2.501 2.501 0 0 0 3.082 2.433c.085.504.24.985.453 1.432A4.001 4.001 0 0 1 2 14.999V11.75c0-.966.784-1.75 1.75-1.75Zm13.125 0h3.375c.966 0 1.75.784 1.75 1.75V15a4 4 0 0 1-5.03 3.866c.214-.448.369-.929.455-1.433A2.5 2.5 0 0 0 20.5 15v-3.25a.25.25 0 0 0-.25-.25h-2.757a2.738 2.738 0 0 0-.618-1.5ZM12 3a3 3 0 1 1 0 6 3 3 0 0 1 0-6Zm6.5 1a2.5 2.5 0 1 1 0 5 2.5 2.5 0 0 1 0-5Zm-13 0a2.5 2.5 0 1 1 0 5 2.5 2.5 0 0 1 0-5Zm6.5.5a1.5 1.5 0 1 0 0 3 1.5 1.5 0 0 0 0-3Zm6.5 1a1 1 0 1 0 0 2 1 1 0 0 0 0-2Zm-13 0a1 1 0 1 0 0 2 1 1 0 0 0 0-2Z"/></svg><svg viewBox="0 0 24 24" id="favorite" xmlns="http://www.w3.org/2000/svg"><path d="M10.788 3.103c.495-1.004 1.926-1.004 2.421 0l2.358 4.777 5.273.766c1.107.161 1.549 1.522.748 2.303l-3.816 3.72.901 5.25c.19 1.103-.968 1.944-1.959 1.424l-4.716-2.48-4.715 2.48c-.99.52-2.148-.32-1.96-1.424l.901-5.25-3.815-3.72c-.801-.78-.359-2.142.748-2.303L8.43 7.88l2.358-4.777Zm1.21.936L9.74 8.615a1.35 1.35 0 0 1-1.016.738l-5.05.734 3.654 3.562c.318.31.463.757.388 1.195l-.862 5.03 4.516-2.375a1.35 1.35 0 0 1 1.257 0l4.516 2.374-.862-5.029a1.35 1.35 0 0 1 .388-1.195l3.654-3.562-5.05-.734a1.35 1.35 0 0 1-1.016-.738l-2.259-4.576Z"/></svg><svg viewBox="0 0 24 24" id="firm" xmlns="http://www.w3.org/2000/svg"><path d="M11.75 1.998a3.752 3.752 0 0 0-.75 7.43V11.5H7.75a2.25 2.25 0 0 0-2.25 2.25v.825a3.754 3.754 0 0 0 .752 7.43A3.752 3.752 0 0 0 7 14.575v-.825a.75.75 0 0 1 .75-.75h8a.75.75 0 0 1 .75.75v.825a3.754 3.754 0 0 0 .752 7.43 3.752 3.752 0 0 0 .748-7.43v-.825a2.25 2.25 0 0 0-2.25-2.25H12.5V9.427a3.754 3.754 0 0 0-.75-7.43ZM9.498 5.75a2.252 2.252 0 1 1 4.504 0 2.252 2.252 0 0 1-4.504 0ZM4 18.252a2.252 2.252 0 1 1 4.504 0 2.252 2.252 0 0 1-4.504 0ZM17.252 16a2.252 2.252 0 1 1 0 4.505 2.252 2.252 0 0 1 0-4.505Z"/></svg><svg viewBox="0 0 24 24" id="gift" xmlns="http://www.w3.org/2000/svg"><path d="M14.5 2a3.25 3.25 0 0 1 2.739 5h2.511c.69 0 1.25.56 1.25 1.25v3.5a1.25 1.25 0 0 1-1 1.225v5.775a3.25 3.25 0 0 1-3.066 3.245L16.75 22h-9.5a3.25 3.25 0 0 1-3.245-3.066L4 18.75v-5.775c-.57-.116-1-.62-1-1.225v-3.5C3 7.56 3.56 7 4.25 7h2.511a3.25 3.25 0 0 1 5.24-3.827A3.24 3.24 0 0 1 14.5 2Zm-3.25 10.999H5.5v5.751a1.75 1.75 0 0 0 1.606 1.744l.144.006h4v-7.501Zm7.25 0h-5.75V20.5h4a1.75 1.75 0 0 0 1.744-1.607l.006-.143v-5.751ZM11.25 8.5H4.5v3l6.75-.001V8.5Zm8.25 3v-3h-6.75v2.999l6.75.001Zm-5-8a1.75 1.75 0 0 0-1.75 1.75v1.749h1.774l.12-.005A1.75 1.75 0 0 0 14.5 3.5Zm-5 0a1.75 1.75 0 0 0-.144 3.494l.12.005h1.774V5.25l-.006-.144A1.75 1.75 0 0 0 9.5 3.5Z"/></svg><svg viewBox="0 0 32 32" id="graph" xmlns="http://www.w3.org/2000/svg"><path d="M12 6.5a3.5 3.5 0 1 1 7 0v19a3.5 3.5 0 1 1-7 0v-19ZM15.5 5A1.5 1.5 0 0 0 14 6.5v19a1.5 1.5 0 0 0 3 0v-19A1.5 1.5 0 0 0 15.5 5Zm6.5 7.5a3.5 3.5 0 1 1 7 0v13a3.5 3.5 0 1 1-7 0v-13Zm3.5-1.5a1.5 1.5 0 0 0-1.5 1.5v13a1.5 1.5 0 0 0 3 0v-13a1.5 1.5 0 0 0-1.5-1.5Zm-20 4A3.5 3.5 0 0 0 2 18.5v7a3.5 3.5 0 1 0 7 0v-7A3.5 3.5 0 0 0 5.5 15ZM4 18.5a1.5 1.5 0 0 1 3 0v7a1.5 1.5 0 0 1-3 0v-7Z"/></svg><svg viewBox="0 0 24 24" id="hand" xmlns="http://www.w3.org/2000/svg"><path d="m16.718 3.26-.737-.619c-1.216-1.02-2.973-.799-3.934.495-.86 1.157-.806 2.81.126 3.901l4.112 4.813a.561.561 0 0 0 .866 0l4.113-4.813c.931-1.09.985-2.744.126-3.9-.961-1.295-2.718-1.516-3.933-.497l-.739.62Zm1.62 12.672-.967-2.755c.239-.102.46-.262.647-.48l.3-.351 1.1 3.133a4.02 4.02 0 0 1 .12 2.209 3.828 3.828 0 0 1-1.058 1.9l-1.433 1.381A3.683 3.683 0 0 1 14.441 22a4.43 4.43 0 0 1-1.76-.377 20.345 20.345 0 0 0-8.041-1.557 1.347 1.347 0 0 1-.73-.19 1.471 1.471 0 0 1-.538-.564 1.325 1.325 0 0 1 0-1.256c.38-.567.86-1.047 1.414-1.414A4.735 4.735 0 0 1 6.6 15.92L2.54 11.585a1.973 1.973 0 0 1-.399-.637 2.08 2.08 0 0 1 0-1.503c.092-.238.228-.454.399-.636.16-.168.347-.304.551-.402a2.067 2.067 0 0 1-.202-2.418c.226-.369.56-.646.95-.786.39-.14.813-.136 1.2.013.083-.301.236-.574.447-.791.17-.183.37-.327.592-.426a1.717 1.717 0 0 1 1.399 0c.221.099.422.243.591.426.092-.223.22-.427.376-.603a1.794 1.794 0 0 1 1.297-.567c.279 0 .551.068.798.194a4.51 4.51 0 0 0-.266 1.274l-.01-.01a.658.658 0 0 0-.76-.162.696.696 0 0 0-.226.162.792.792 0 0 0 0 1.055l.822.817 1.554 1.704 1.469 1.719a.642.642 0 0 1-.346.738.533.533 0 0 1-.634-.14L9.206 7.476l-.822-.88-1.173-1.33a.658.658 0 0 0-.47-.202.658.658 0 0 0-.47.201.743.743 0 0 0-.192.503c0 .188.07.368.192.502L9.5 9.726c.108.116.17.275.17.44a.645.645 0 0 1-.17.44.562.562 0 0 1-.411.181.562.562 0 0 1-.411-.182L6.494 8.281 4.851 6.522a.636.636 0 0 0-.464-.204.636.636 0 0 0-.463.204.743.743 0 0 0-.193.503c0 .188.07.369.193.502L5.18 8.86l2.559 2.751c.109.117.17.275.17.44a.645.645 0 0 1-.17.44.562.562 0 0 1-.411.182.562.562 0 0 1-.411-.182l-1.35-1.433-1.22-1.306a.636.636 0 0 0-.464-.205.636.636 0 0 0-.464.205.654.654 0 0 0-.149.222.693.693 0 0 0-.05.268.749.749 0 0 0 .042.3.71.71 0 0 0 .157.253l4.918 5.213c.082.089.136.2.158.323a.67.67 0 0 1-.036.362.62.62 0 0 1-.218.28.56.56 0 0 1-.326.103s-2.524 0-3.51 1.696c0 .05.094.138.235.138a.674.674 0 0 1 .164 0 21.855 21.855 0 0 1 8.334 1.646c.504.253 1.065.35 1.618.276a2.852 2.852 0 0 0 1.505-.69l1.467-1.446c.35-.34.596-.787.705-1.28a2.68 2.68 0 0 0-.094-1.483Zm-7.226 1.076c.466-.249 1.22-.393 1.989-.255.756.134 1.477.53 1.956 1.298.18.29.544.367.814.175a.656.656 0 0 0 .162-.871c-.695-1.116-1.734-1.662-2.74-1.842-.99-.177-1.998-.007-2.705.37-.29.155-.408.532-.264.843.145.31.498.437.788.282Z"/></svg><svg viewBox="0 0 20 20" id="heart" xmlns="http://www.w3.org/2000/svg"><path d="m10.496 16.803 6.245-6.304a4.408 4.408 0 0 0-.017-6.187 4.306 4.306 0 0 0-6.135-.015l-.596.603-.605-.61a4.301 4.301 0 0 0-6.127-.016c-1.688 1.705-1.68 4.476.016 6.189l6.277 6.34c.26.263.682.263.942 0ZM11.3 5a3.306 3.306 0 0 1 4.713.016 3.408 3.408 0 0 1 .016 4.78v.002l-6.004 6.06-6.038-6.099c-1.313-1.326-1.314-3.47-.015-4.782a3.302 3.302 0 0 1 4.706.016l.96.97a.5.5 0 0 0 .711 0L11.3 5Z"/></svg><svg viewBox="0 0 32 32" id="hearts" xmlns="http://www.w3.org/2000/svg"><path d="M12.5 3C6.701 3 2 7.701 2 13.5a10.479 10.479 0 0 0 1.102 4.688l-1.05 3.918a1.5 1.5 0 0 0 1.838 1.837l3.915-1.049A10.461 10.461 0 0 0 12.5 24C18.3 24 23 19.299 23 13.5S18.3 3 12.5 3ZM5.046 17.588A8.458 8.458 0 0 1 4 13.5a8.5 8.5 0 1 1 8.5 8.5c-1.486 0-2.88-.38-4.094-1.049a1 1 0 0 0-.741-.09l-3.456.926.926-3.458a1 1 0 0 0-.09-.74Zm9.409 7.754a12.077 12.077 0 0 1-2.808.128A10.474 10.474 0 0 0 19.5 29a10.46 10.46 0 0 0 4.695-1.106l3.915 1.05a1.5 1.5 0 0 0 1.837-1.838l-1.05-3.918A10.44 10.44 0 0 0 30 18.5c0-4.364-2.662-8.106-6.451-9.69.362.853.63 1.757.787 2.699A8.49 8.49 0 0 1 28 18.5c0 1.484-.38 2.876-1.046 4.088a1 1 0 0 0-.09.74l.927 3.46-3.456-.927a1 1 0 0 0-.74.09 8.457 8.457 0 0 1-4.095 1.05 8.462 8.462 0 0 1-5.045-1.66Zm-2.376-14.967a2.985 2.985 0 0 0-4.212-.01 2.963 2.963 0 0 0 .01 4.199l4.316 4.302a.46.46 0 0 0 .648 0l4.293-4.277a2.964 2.964 0 0 0-.011-4.198 2.988 2.988 0 0 0-4.218-.011l-.41.41-.415-.415Z"/></svg><svg viewBox="0 0 20 20" id="hide" xmlns="http://www.w3.org/2000/svg"><path d="M14 7.5a1.5 1.5 0 1 1-3 0 1.5 1.5 0 0 1 3 0Zm-1 0a.5.5 0 1 0-1 0 .5.5 0 0 0 1 0ZM3 6a3 3 0 0 1 3-3h8a3 3 0 0 1 3 3v8a3 3 0 0 1-3 3H6a3 3 0 0 1-3-3V6Zm3-2a2 2 0 0 0-2 2v8c0 .373.102.722.28 1.02l4.669-4.588a1.5 1.5 0 0 1 2.102 0l4.67 4.588A1.99 1.99 0 0 0 16 14V6a2 2 0 0 0-2-2H6Zm0 12h8c.37 0 .715-.1 1.012-.274l-4.662-4.58a.5.5 0 0 0-.7 0l-4.662 4.58A1.99 1.99 0 0 0 6 16Z"/></svg><svg viewBox="0 0 20 20" id="list" xmlns="http://www.w3.org/2000/svg"><path d="M5.75 3h8.5A2.75 2.75 0 0 1 17 5.75v3.253c-.341.016-.68.092-1 .229V5.75A1.75 1.75 0 0 0 14.25 4h-8.5A1.75 1.75 0 0 0 4 5.75v8.5c0 .966.784 1.75 1.75 1.75h3.725a3.17 3.17 0 0 0-.043.155L9.22 17H5.75A2.75 2.75 0 0 1 3 14.25v-8.5A2.75 2.75 0 0 1 5.75 3ZM9.5 13h2.443l-1 1H9.5a.5.5 0 0 1 0-1Zm-2-5.75a.75.75 0 1 1-1.5 0 .75.75 0 0 1 1.5 0ZM6.75 11a.75.75 0 1 0 0-1.5.75.75 0 0 0 0 1.5Zm0 3a.75.75 0 1 0 0-1.5.75.75 0 0 0 0 1.5ZM9.5 7a.5.5 0 0 0 0 1h4a.5.5 0 0 0 0-1h-4Zm0 3a.5.5 0 0 0 0 1h4a.5.5 0 0 0 0-1h-4Zm1.48 5.377 4.83-4.83a1.87 1.87 0 1 1 2.644 2.646l-4.83 4.829a2.197 2.197 0 0 1-1.02.578l-1.498.374a.89.89 0 0 1-1.079-1.078l.375-1.498c.096-.386.296-.74.578-1.02Z"/></svg><svg viewBox="0 0 16 16" id="mail" xmlns="http://www.w3.org/2000/svg"><path d="M2 6.038V11a2 2 0 0 0 2 2h8a2 2 0 0 0 2-2V5a2 2 0 0 0-2-2H4a2 2 0 0 0-2 2v1.038ZM4 4h8a1 1 0 0 1 1 1v.74L8 8.432 3 5.74V5a1 1 0 0 1 1-1ZM3 6.876 7.763 9.44a.5.5 0 0 0 .474 0L13 6.876V11a1 1 0 0 1-1 1H4a1 1 0 0 1-1-1V6.876Z"/></svg><svg viewBox="0 0 16 16" id="map" xmlns="http://www.w3.org/2000/svg"><path d="M5.235 2.076a.5.5 0 0 1 .489-.023l4.749 2.374 3.762-2.351A.5.5 0 0 1 15 2.5V11a.5.5 0 0 1-.235.424l-4 2.5a.5.5 0 0 1-.489.023l-4.749-2.374-3.762 2.351A.5.5 0 0 1 1 13.5V5a.5.5 0 0 1 .235-.424l4-2.5ZM6 10.691l4 2V5.309l-4-2v7.382ZM5 3.402 2 5.277v7.32l3-1.874v-7.32Zm6 1.875v7.32l3-1.874v-7.32l-3 1.874Z"/></svg><svg viewBox="0 0 32 32" id="news" xmlns="http://www.w3.org/2000/svg"><path d="M26.208 28H5.792c-2.022 0-3.674-1.628-3.786-3.679L2 24.1V6.7c0-1.429 1.08-2.599 2.445-2.694L4.625 4h18.083c1.39 0 2.527 1.11 2.62 2.515l.005.185v.9h2.042c1.39 0 2.527 1.11 2.619 2.515L30 10.3v13.8c0 2.08-1.582 3.78-3.576 3.894l-.216.006H5.792h20.416ZM5.792 26.2h20.416c1.072 0 1.95-.848 2.035-1.928l.007-.172V10.3a.892.892 0 0 0-.756-.892l-.119-.008h-2.042v12.9c0 .456-.329.832-.756.892l-.119.008a.884.884 0 0 1-.867-.778l-.008-.122V6.7a.892.892 0 0 0-.756-.892l-.119-.008H4.625a.884.884 0 0 0-.867.778L3.75 6.7v17.4c0 1.102.825 2.005 1.874 2.093l.168.007h20.416H5.792Zm5.829-11.396c.805 0 1.458.672 1.458 1.5V20.5c0 .828-.653 1.5-1.458 1.5H7.54c-.805 0-1.458-.672-1.458-1.5v-4.196c0-.828.653-1.5 1.459-1.5h4.079Zm4.67 5.396h4.08c.483 0 .875.403.875.9 0 .456-.33.832-.757.892L20.37 22h-4.078a.888.888 0 0 1-.875-.9c0-.456.329-.832.756-.892l.119-.008h4.078-4.078Zm-4.962-3.596H7.833V20.2h3.496v-3.596Zm4.963-1.8h4.078c.484 0 .875.403.875.9 0 .456-.329.832-.756.892l-.119.008h-4.078a.888.888 0 0 1-.875-.9c0-.456.329-.832.756-.892l.119-.008h4.078-4.078ZM6.954 9.396H20.37c.484 0 .875.403.875.9 0 .456-.329.832-.756.892l-.119.008H6.954a.888.888 0 0 1-.875-.9c0-.456.33-.832.756-.892l.12-.008H20.37 6.954Z"/></svg><svg viewBox="0 0 21 20" id="open" xmlns="http://www.w3.org/2000/svg"><path d="M6.5 4a2 2 0 0 0-2 2v8a2 2 0 0 0 2 2h8a2 2 0 0 0 2-2v-2.5a.5.5 0 0 1 1 0V14a3 3 0 0 1-3 3h-8a3 3 0 0 1-3-3V6a3 3 0 0 1 3-3H9a.5.5 0 0 1 0 1H6.5Zm5-.5A.5.5 0 0 1 12 3h5a.5.5 0 0 1 .5.5v5a.5.5 0 0 1-1 0V4.707l-4.146 4.147a.5.5 0 0 1-.708-.708L15.793 4H12a.5.5 0 0 1-.5-.5Z"/></svg><svg viewBox="0 0 20 20" id="options" xmlns="http://www.w3.org/2000/svg"><path d="M6.25 10a1.25 1.25 0 1 1-2.5 0 1.25 1.25 0 0 1 2.5 0Zm5 0a1.25 1.25 0 1 1-2.5 0 1.25 1.25 0 0 1 2.5 0ZM15 11.25a1.25 1.25 0 1 0 0-2.5 1.25 1.25 0 0 0 0 2.5Z"/></svg><svg viewBox="0 0 16 16" id="organization" xmlns="http://www.w3.org/2000/svg"><path d="M8 1a2.5 2.5 0 0 0-.5 4.95V7H5.367C4.612 7 4 7.612 4 8.367v1.683a2.5 2.5 0 1 0 1 0V8.367C5 8.164 5.164 8 5.367 8h5.267c.202 0 .366.164.366.367v1.683a2.5 2.5 0 1 0 1 0V8.367C12 7.612 11.388 7 10.634 7H8.499V5.95A2.5 2.5 0 0 0 8 1ZM6.5 3.5a1.5 1.5 0 1 1 3 0 1.5 1.5 0 0 1-3 0Zm-3.5 9a1.5 1.5 0 1 1 3 0 1.5 1.5 0 0 1-3 0Zm8.5-1.5a1.5 1.5 0 1 1 0 3 1.5 1.5 0 0 1 0-3Z"/></svg><svg viewBox="0 0 16 16" id="phone" xmlns="http://www.w3.org/2000/svg"><path d="M7 12a.5.5 0 0 0 0 1h2a.5.5 0 0 0 0-1H7ZM5.75 1A1.75 1.75 0 0 0 4 2.75v10.5c0 .966.784 1.75 1.75 1.75h4.5A1.75 1.75 0 0 0 12 13.25V2.75A1.75 1.75 0 0 0 10.25 1h-4.5ZM5 2.75A.75.75 0 0 1 5.75 2h4.5a.75.75 0 0 1 .75.75v10.5a.75.75 0 0 1-.75.75h-4.5a.75.75 0 0 1-.75-.75V2.75Z"/></svg><svg viewBox="0 0 20 20" id="plus" xmlns="http://www.w3.org/2000/svg"><path d="M10 2.5a.5.5 0 0 0-1 0V9H2.5a.5.5 0 0 0 0 1H9v6.5a.5.5 0 0 0 1 0V10h6.5a.5.5 0 0 0 0-1H10V2.5Z"/></svg><svg viewBox="0 0 24 24" id="profile" xmlns="http://www.w3.org/2000/svg"><path d="M17.755 14a2.249 2.249 0 0 1 2.248 2.249v.575c0 .894-.32 1.76-.9 2.439C17.532 21.096 15.145 22 12 22s-5.532-.905-7.098-2.74a3.75 3.75 0 0 1-.898-2.434v-.578a2.249 2.249 0 0 1 2.249-2.25h11.502Zm0 1.5H6.252a.749.749 0 0 0-.75.749v.578c0 .535.192 1.053.54 1.46 1.253 1.468 3.22 2.214 5.957 2.214 2.739 0 4.706-.746 5.963-2.214a2.25 2.25 0 0 0 .54-1.463v-.575a.749.749 0 0 0-.748-.75ZM12 2.005a5 5 0 1 1 0 10 5 5 0 0 1 0-10Zm0 1.5a3.5 3.5 0 1 0 0 7 3.5 3.5 0 0 0 0-7Z"/></svg><svg viewBox="0 0 20 20" id="question" xmlns="http://www.w3.org/2000/svg"><path d="M10 2a8 8 0 1 1 0 16 8 8 0 0 1 0-16Zm0 11.5a.75.75 0 1 0 0 1.5.75.75 0 0 0 0-1.5Zm0-8A2.5 2.5 0 0 0 7.5 8a.5.5 0 0 0 1 0 1.5 1.5 0 1 1 2.632.984l-.106.11-.118.1-.247.185a3.11 3.11 0 0 0-.356.323C9.793 10.248 9.5 10.988 9.5 12a.5.5 0 0 0 1 0c0-.758.196-1.254.535-1.614l.075-.076.08-.073.088-.072.219-.163.154-.125A2.5 2.5 0 0 0 10 5.5Z"/></svg><svg viewBox="0 0 20 20" id="search" xmlns="http://www.w3.org/2000/svg"><path d="M8.5 3a5.5 5.5 0 0 1 4.227 9.02l4.127 4.126a.5.5 0 0 1-.638.765l-.07-.057-4.126-4.127A5.5 5.5 0 1 1 8.5 3Zm0 1a4.5 4.5 0 1 0 0 9 4.5 4.5 0 0 0 0-9Z"/></svg><svg viewBox="0 0 24 24" id="services" xmlns="http://www.w3.org/2000/svg"><path d="M16.088 6.412a2.844 2.844 0 0 0-1.347-.955l-1.378-.448a.544.544 0 0 1 0-1.025l1.378-.448A2.839 2.839 0 0 0 16.5 1.774l.011-.034.448-1.377a.544.544 0 0 1 1.027 0l.447 1.377a2.835 2.835 0 0 0 1.799 1.796l1.377.448.028.007a.544.544 0 0 1 0 1.025l-1.378.448a2.839 2.839 0 0 0-1.798 1.796l-.448 1.377a.544.544 0 0 1-1.026 0l-.448-1.377a2.837 2.837 0 0 0-.45-.848Zm7.695 3.801-.766-.248a1.577 1.577 0 0 1-.998-.999l-.25-.764a.302.302 0 0 0-.57 0l-.248.764a1.576 1.576 0 0 1-.984.999l-.765.248a.302.302 0 0 0 0 .57l.765.249a1.578 1.578 0 0 1 1 1.002l.248.764a.302.302 0 0 0 .57 0l.249-.764a1.576 1.576 0 0 1 .999-.999l.765-.248a.302.302 0 0 0 0-.57l-.015-.004ZM12 2c.957 0 1.883.134 2.759.385a1.76 1.76 0 0 1-.369.174l-1.34.44a1.65 1.65 0 0 0-.721.507A8.5 8.5 0 0 0 3.5 12c0 1.47.373 2.883 1.073 4.137l.15.27-1.112 3.984 3.987-1.112.27.15a8.502 8.502 0 0 0 12.507-5.965c.09.134.203.25.335.345a1.29 1.29 0 0 0 1.09.195C20.87 18.567 16.836 22 12 22a9.96 9.96 0 0 1-4.587-1.112l-3.826 1.067a1.25 1.25 0 0 1-1.54-1.54l1.068-3.823A9.96 9.96 0 0 1 2 12C2 6.477 6.477 2 12 2Z"/></svg><svg viewBox="0 0 20 20" id="settings" xmlns="http://www.w3.org/2000/svg"><path d="M1.911 7.383a8.491 8.491 0 0 1 1.78-3.08.5.5 0 0 1 .54-.135l1.918.686a1 1 0 0 0 1.32-.762l.366-2.006a.5.5 0 0 1 .388-.4 8.532 8.532 0 0 1 3.554 0 .5.5 0 0 1 .388.4l.366 2.006a1 1 0 0 0 1.32.762l1.919-.686a.5.5 0 0 1 .54.136 8.491 8.491 0 0 1 1.78 3.079.5.5 0 0 1-.153.535l-1.555 1.32a1 1 0 0 0 0 1.524l1.555 1.32a.5.5 0 0 1 .152.535 8.491 8.491 0 0 1-1.78 3.08.5.5 0 0 1-.54.135l-1.918-.686a1 1 0 0 0-1.32.762l-.366 2.007a.5.5 0 0 1-.388.399 8.528 8.528 0 0 1-3.554 0 .5.5 0 0 1-.388-.4l-.366-2.006a1 1 0 0 0-1.32-.762l-1.918.686a.5.5 0 0 1-.54-.136 8.49 8.49 0 0 1-1.78-3.079.5.5 0 0 1 .152-.535l1.555-1.32a1 1 0 0 0 0-1.524l-1.555-1.32a.5.5 0 0 1-.152-.535Zm1.06-.006 1.294 1.098a2 2 0 0 1 0 3.05l-1.293 1.098c.292.782.713 1.51 1.244 2.152l1.596-.57a2 2 0 0 1 2.64 1.525l.305 1.668a7.556 7.556 0 0 0 2.486 0l.304-1.67a1.998 1.998 0 0 1 2.641-1.524l1.596.571a7.492 7.492 0 0 0 1.245-2.152l-1.294-1.098a1.998 1.998 0 0 1 0-3.05l1.294-1.098a7.491 7.491 0 0 0-1.245-2.152l-1.596.57a2 2 0 0 1-2.64-1.524l-.305-1.669a7.555 7.555 0 0 0-2.486 0l-.304 1.669a2 2 0 0 1-2.64 1.525l-1.597-.571a7.491 7.491 0 0 0-1.244 2.152ZM7.502 10a2.5 2.5 0 1 1 5 0 2.5 2.5 0 0 1-5 0Zm1 0a1.5 1.5 0 1 0 3 0 1.5 1.5 0 0 0-3 0Z"/></svg><svg viewBox="0 0 16 16" id="skype" xmlns="http://www.w3.org/2000/svg"><path d="M4.622 10.16c0 .869 1.068 2.053 3.406 2.053h-.002c2.225 0 3.354-1.12 3.354-2.57 0-.942-.45-1.926-2.137-2.304l-1.539-.346c-.584-.127-1.25-.316-1.25-.874 0-.557.45-.956 1.306-.956 1.008 0 1.376.41 1.68.75.214.24.397.444.75.444.45 0 .838-.247.838-.708 0-1.07-1.71-1.86-3.15-1.86-1.562 0-3.203.645-3.203 2.43 0 .86.292 1.786 1.968 2.21l2.085.523c.63.148.816.516.816.839 0 .537-.56 1.109-1.516 1.109-1.078 0-1.447-.498-1.758-.919-.228-.308-.426-.575-.849-.575a.76.76 0 0 0-.563.206.752.752 0 0 0-.236.548Z"/><path fill-rule="evenodd" clip-rule="evenodd" d="M9.146 14.486a3.89 3.89 0 0 0 1.94.514 3.944 3.944 0 0 0 3.386-1.959 3.9 3.9 0 0 0 .013-3.895c.067-.381.1-.767.1-1.153a6.536 6.536 0 0 0-2.34-5.035 6.613 6.613 0 0 0-5.387-1.444A3.892 3.892 0 0 0 4.916 1a3.944 3.944 0 0 0-3.388 1.96 3.9 3.9 0 0 0-.012 3.897 6.532 6.532 0 0 0 1.811 5.796 6.614 6.614 0 0 0 5.819 1.833ZM13.5 8.973a1 1 0 0 0 .117.669 2.9 2.9 0 0 1-.01 2.897A2.944 2.944 0 0 1 11.081 14a2.89 2.89 0 0 1-1.438-.382 1 1 0 0 0-.67-.117 5.614 5.614 0 0 1-4.939-1.555A5.532 5.532 0 0 1 2.5 7.036a1 1 0 0 0-.116-.676 2.9 2.9 0 0 1 .009-2.899A2.944 2.944 0 0 1 4.92 2c.506 0 1.003.131 1.441.382a1 1 0 0 0 .67.117 5.613 5.613 0 0 1 4.57 1.225 5.535 5.535 0 0 1 1.984 4.265v.005c0 .328-.028.656-.085.979Z"/></svg><svg viewBox="0 0 20 20" id="target" xmlns="http://www.w3.org/2000/svg"><path d="M17.962 5.309a.5.5 0 0 1-.108.545l-2 2A.5.5 0 0 1 15.5 8h-2.793l-1.353 1.353a1.5 1.5 0 1 1-.707-.707L12 7.293V4.5a.5.5 0 0 1 .146-.354l2-2A.5.5 0 0 1 15 2.5V5h2.5a.5.5 0 0 1 .462.309ZM16.293 6H14.5a.5.5 0 0 1-.5-.5V3.707l-1 1V7h2.293l1-1Zm1.314 1.515C17.862 8.297 18 9.133 18 10a8 8 0 1 1-5.515-7.606l-.808.808a7 7 0 1 0 5.121 5.122l.809-.809ZM14.9 9A5 5 0 1 1 11 5.1v1.026A4 4 0 1 0 13.874 9H14.9Z"/></svg><svg viewBox="0 0 16 16" id="telegram" xmlns="http://www.w3.org/2000/svg"><path d="M13.615 2.002a1.506 1.506 0 0 0-.476.114h-.002c-.146.059-.837.352-1.887.795L7.484 4.51 2.127 6.782l.032-.012s-.184.06-.375.193a1.04 1.04 0 0 0-.299.29.86.86 0 0 0-.141.57c.046.372.285.595.456.717.173.125.339.183.339.183h.004l2.49.845c.112.36.76 2.504.915 2.998.091.295.181.48.293.62a.724.724 0 0 0 .193.18.568.568 0 0 0 .125.055l-.025-.006c.008.002.013.008.02.01.02.006.033.008.06.012.394.12.71-.127.71-.127l.018-.014 1.127-1.033a.552.552 0 0 1 .712-.03l2.096 1.619.056.024c.514.227 1.034.1 1.31-.122.276-.225.384-.512.384-.512l.018-.046 1.905-9.827c.053-.243.067-.47.007-.69a.928.928 0 0 0-.398-.538.948.948 0 0 0-.544-.139Zm-.052 1.054c-.002.032.004.028-.01.09v.006l-1.887 9.725c-.008.014-.021.044-.06.074-.04.032-.071.052-.236-.014L9.12 11.2a1.146 1.146 0 0 0-1.477.063L6.534 12.28l.383-2.46 3.125-2.999c.309-.296-.061-.79-.428-.572C7.75 7.357 5.46 8.773 5.46 8.773l-.002-.01-2.977-1.01v-.002l-.008-.002a.136.136 0 0 0 .016-.006l.016-.008.016-.006 5.36-2.273 3.764-1.598c1.048-.443 1.823-.768 1.866-.786.042-.016.022-.016.052-.016Z"/></svg><svg viewBox="0 0 24 24" id="trophy" xmlns="http://www.w3.org/2000/svg"><path d="M15.254 2a2.25 2.25 0 0 1 2.236 2h1.268a1.75 1.75 0 0 1 1.744 1.606l.006.144v3a3.25 3.25 0 0 1-3.066 3.245l-.21.006a5.758 5.758 0 0 1-4.731 3.95V17.5h1.753a3.25 3.25 0 0 1 3.244 3.066l.006.184v.5a.75.75 0 0 1-.649.743l-.101.007H6.75a.75.75 0 0 1-.744-.648l-.006-.102v-.5a3.25 3.25 0 0 1 3.065-3.245l.185-.005H11v-1.549a5.758 5.758 0 0 1-4.729-3.95L6.246 12a3.25 3.25 0 0 1-3.25-3.25v-3c0-.966.784-1.75 1.75-1.75h1.268a2.25 2.25 0 0 1 2.237-2h7.003Zm-1 17H9.25a1.75 1.75 0 0 0-1.705 1.352l-.028.148h8.468a1.75 1.75 0 0 0-1.579-1.493L14.255 19Zm1-15.5H8.25a.75.75 0 0 0-.75.75v5.998a4.252 4.252 0 0 0 8.503 0V4.25a.75.75 0 0 0-.75-.75Zm3.504 2h-1.254v4.983A1.75 1.75 0 0 0 19 8.904l.007-.154v-3a.25.25 0 0 0-.193-.243l-.057-.007ZM6 5.5H4.746a.25.25 0 0 0-.25.25v3a1.75 1.75 0 0 0 1.505 1.733V5.5Z"/></svg><svg viewBox="0 0 32 32" id="video" xmlns="http://www.w3.org/2000/svg"><path d="M6.5 4A4.5 4.5 0 0 0 2 8.5v15A4.5 4.5 0 0 0 6.5 28h19a4.5 4.5 0 0 0 4.5-4.5v-15A4.5 4.5 0 0 0 25.5 4h-19ZM4 8.5A2.5 2.5 0 0 1 6.5 6h19A2.5 2.5 0 0 1 28 8.5v15a2.5 2.5 0 0 1-2.5 2.5h-19A2.5 2.5 0 0 1 4 23.5v-15Zm8 3.501V20a1 1 0 0 0 1.47.882l7.498-3.999a1 1 0 0 0 0-1.764l-7.497-4a1 1 0 0 0-1.471.883Z"/></svg><svg viewBox="0 0 24 24" id="wand" xmlns="http://www.w3.org/2000/svg"><path d="m13.314 7.565-.136.126-10.48 10.488a2.27 2.27 0 0 0 3.211 3.208L16.388 10.9a2.251 2.251 0 0 0-.001-3.182l-.157-.146a2.25 2.25 0 0 0-2.916-.007Zm-.848 2.961 1.088 1.088-8.706 8.713a.77.77 0 1 1-1.089-1.088l8.707-8.713Zm4.386 4.48L16.75 15a.75.75 0 0 0-.743.648L16 15.75v.75h-.75a.75.75 0 0 0-.743.648l-.007.102c0 .38.282.694.648.743l.102.007H16v.75c0 .38.282.694.648.743l.102.007a.75.75 0 0 0 .743-.648l.007-.102V18h.75a.75.75 0 0 0 .743-.648L19 17.25a.75.75 0 0 0-.648-.743l-.102-.007h-.75v-.75a.75.75 0 0 0-.648-.743L16.75 15l.102.007Zm-1.553-6.254.027.027a.751.751 0 0 1 0 1.061l-.711.713-1.089-1.089.73-.73a.75.75 0 0 1 1.043.018ZM6.852 5.007 6.75 5a.75.75 0 0 0-.743.648L6 5.75v.75h-.75a.75.75 0 0 0-.743.648L4.5 7.25c0 .38.282.693.648.743L5.25 8H6v.75c0 .38.282.693.648.743l.102.007a.75.75 0 0 0 .743-.648L7.5 8.75V8h.75a.75.75 0 0 0 .743-.648L9 7.25a.75.75 0 0 0-.648-.743L8.25 6.5H7.5v-.75a.75.75 0 0 0-.648-.743L6.75 5l.102.007Zm12-2L18.75 3a.75.75 0 0 0-.743.648L18 3.75v.75h-.75a.75.75 0 0 0-.743.648l-.007.102c0 .38.282.693.648.743L17.25 6H18v.75c0 .38.282.693.648.743l.102.007a.75.75 0 0 0 .743-.648l.007-.102V6h.75a.75.75 0 0 0 .743-.648L21 5.25a.75.75 0 0 0-.648-.743L20.25 4.5h-.75v-.75a.75.75 0 0 0-.648-.743L18.75 3l.102.007Z"/></svg></svg>