<svg width="38" height="45" viewBox="0 0 38 45" fill="none" xmlns="http://www.w3.org/2000/svg">
<path d="M0.412109 44.8V42.944L4.82811 42.688C5.46811 42.2187 5.78812 41.5787 5.78812 40.768V4.032C5.78812 3.17867 5.46811 2.53867 4.82811 2.112L0.412109 1.856V0H19.4841C24.6894 0 28.6574 0.981333 31.3881 2.944C34.1614 4.864 35.5481 7.488 35.5481 10.816C35.5481 13.248 34.7801 15.3387 33.2441 17.088C31.7508 18.7947 29.6174 20.032 26.8441 20.8V21.12C30.2575 21.76 32.9028 23.0827 34.7801 25.088C36.7001 27.0507 37.6601 29.504 37.6601 32.448C37.6601 36.288 36.1668 39.3173 33.1801 41.536C30.2361 43.712 26.0548 44.8 20.6361 44.8H0.412109ZM18.3961 20.16C21.2121 20.16 23.3881 19.392 24.9241 17.856C26.4601 16.32 27.2281 14.144 27.2281 11.328C27.2281 8.46933 26.4601 6.25067 24.9241 4.672C23.3881 3.09333 21.2121 2.304 18.3961 2.304H13.6601V20.16H18.3961ZM19.9321 42.496C22.9188 42.496 25.2228 41.6427 26.8441 39.936C28.5081 38.2293 29.3401 35.84 29.3401 32.768C29.3401 29.4827 28.5081 26.944 26.8441 25.152C25.2228 23.3173 22.9188 22.4 19.9321 22.4H13.6601V42.496H19.9321Z" fill="url(#paint0_linear_3001_5865)"/>
<defs>
<linearGradient id="paint0_linear_3001_5865" x1="58.8574" y1="56.7998" x2="58.8574" y2="-11.2002" gradientUnits="userSpaceOnUse">
<stop offset="0.125" stop-color="#0048F4"/>
<stop offset="0.331731" stop-color="#1A5AF5"/>
<stop offset="0.831731"/>
</linearGradient>
</defs>
</svg>
