<svg width="48" height="64" viewBox="0 0 48 64" fill="none" xmlns="http://www.w3.org/2000/svg">
<path d="M2.25781 60.6C2.47115 57.1867 2.57781 54.008 2.57781 51.064C2.57781 48.8453 2.55648 47.1173 2.51381 45.88L6.28981 45.752C8.97781 42.7653 11.0471 38.4987 12.4978 32.952C13.9911 27.4053 14.9511 20.3013 15.3778 11.64C15.4631 10.0187 15.3351 8.632 14.9938 7.48C14.6951 6.28533 14.2685 5.53867 13.7138 5.24L8.78581 4.856V3H44.3058V4.856L39.8258 5.112C39.2285 5.58133 38.9298 6.22134 38.9298 7.032V43.576C38.9298 44.472 39.2711 45.1547 39.9538 45.624L45.5858 45.88C45.5431 46.8613 45.5218 48.2907 45.5218 50.168C45.5218 53.24 45.6285 56.7387 45.8418 60.664L44.3698 60.856L38.3538 47.8H9.93781L3.79381 60.856L2.25781 60.6ZM30.9938 45.496V5.304H18.1298L17.8738 9.72C17.4471 18.8507 16.5085 26.3387 15.0578 32.184C13.6498 38.0293 11.7085 42.4667 9.23381 45.496H30.9938Z" fill="url(#paint0_linear_3001_18273)"/>
<defs>
<linearGradient id="paint0_linear_3001_18273" x1="157" y1="59.7998" x2="157" y2="-8.20019" gradientUnits="userSpaceOnUse">
<stop offset="0.125" stop-color="#0048F4"/>
<stop offset="0.331731" stop-color="#1A5AF5"/>
<stop offset="0.831731"/>
</linearGradient>
</defs>
</svg>
