<svg width="49" height="64" viewBox="0 0 49 64" fill="none" xmlns="http://www.w3.org/2000/svg">
<path d="M41.5714 34.296L43.0434 34.744C41.9767 39.1813 41.2087 43.5333 40.7393 47.8H5.02734V45.944L9.44334 45.688C10.0833 45.2187 10.4033 44.5787 10.4033 43.768V7.032C10.4033 6.17867 10.0833 5.53867 9.44334 5.112L5.02734 4.856V3H39.6513C39.694 6.88267 40.0567 11.0213 40.7393 15.416L39.1393 15.672L32.9313 5.304H18.2753V23.608H26.3393C27.3633 23.608 28.174 23.2027 28.7713 22.392L29.1553 15.928H30.9473V33.528H29.1553L28.7713 27.064C28.2167 26.2533 27.406 25.848 26.3393 25.848H18.2753V45.496H33.9553L41.5714 34.296Z" fill="url(#paint0_linear_3001_5888)"/>
<defs>
<linearGradient id="paint0_linear_3001_5888" x1="21.2851" y1="59.7998" x2="21.2851" y2="-8.20019" gradientUnits="userSpaceOnUse">
<stop offset="0.125" stop-color="#0048F4"/>
<stop offset="0.331731" stop-color="#1A5AF5"/>
<stop offset="0.831731"/>
</linearGradient>
</defs>
</svg>
