<svg width="49" height="64" viewBox="0 0 49 64" fill="none" xmlns="http://www.w3.org/2000/svg">
<path d="M1.32227 47.8V45.944L5.73827 45.688C6.37827 45.2187 6.69826 44.5787 6.69826 43.768V7.032C6.69826 6.17867 6.37827 5.53867 5.73827 5.112L1.32227 4.856V3H20.0103V4.856L15.5303 5.112C14.8903 5.624 14.5703 6.264 14.5703 7.032V40.248L36.0103 3H47.6583V4.856L43.2423 5.112C42.6023 5.53867 42.2823 6.17867 42.2823 7.032V43.768C42.2823 44.5787 42.6023 45.2187 43.2423 45.688L47.6583 45.944V47.8H29.0343V45.944L33.4503 45.688C34.0903 45.2187 34.4103 44.5787 34.4103 43.768V10.488L12.9703 47.8H1.32227Z" fill="url(#paint0_linear_3001_14414)"/>
<defs>
<linearGradient id="paint0_linear_3001_14414" x1="-62.8574" y1="59.7998" x2="-62.8574" y2="-8.20019" gradientUnits="userSpaceOnUse">
<stop offset="0.125" stop-color="#0048F4"/>
<stop offset="0.331731" stop-color="#1A5AF5"/>
<stop offset="0.831731"/>
</linearGradient>
</defs>
</svg>
