<svg width="49" height="64" viewBox="0 0 49 64" fill="none" xmlns="http://www.w3.org/2000/svg">
<path d="M23.7541 49.464C19.4021 49.464 15.5835 48.5253 12.2981 46.648C9.01281 44.728 6.47414 42.04 4.68214 38.584C2.89014 35.0853 1.99414 31.032 1.99414 26.424C1.99414 21.7307 2.91148 17.6133 4.74614 14.072C6.58081 10.5307 9.16214 7.8 12.4901 5.88C15.8608 3.96 19.7435 3 24.1381 3C28.4475 3 32.2448 3.96 35.5301 5.88C38.8155 7.75734 41.3541 10.4453 43.1461 13.944C44.9808 17.4 45.8981 21.432 45.8981 26.04C45.8981 30.7333 44.9808 34.8507 43.1461 38.392C41.3115 41.9333 38.7088 44.664 35.3381 46.584C32.0101 48.504 28.1488 49.464 23.7541 49.464ZM23.9461 47.096C28.2128 47.096 31.4768 45.3467 33.7381 41.848C36.0421 38.3067 37.1941 33.1867 37.1941 26.488C37.1941 19.6187 36.0421 14.392 33.7381 10.808C31.4768 7.18133 28.2128 5.368 23.9461 5.368C19.6795 5.368 16.3941 7.13867 14.0901 10.68C11.8288 14.1787 10.6981 19.2773 10.6981 25.976C10.6981 32.8453 11.8288 38.0933 14.0901 41.72C16.3941 45.304 19.6795 47.096 23.9461 47.096Z" fill="url(#paint0_linear_3001_1988)"/>
<defs>
<linearGradient id="paint0_linear_3001_1988" x1="109.428" y1="60.6318" x2="109.428" y2="-7.36816" gradientUnits="userSpaceOnUse">
<stop offset="0.125" stop-color="#0048F4"/>
<stop offset="0.331731" stop-color="#1A5AF5"/>
<stop offset="0.831731"/>
</linearGradient>
</defs>
</svg>
