<svg width="49" height="64" viewBox="0 0 49 64" fill="none" xmlns="http://www.w3.org/2000/svg">
<path d="M6.95703 47.8V45.944L11.373 45.688C12.013 45.2187 12.333 44.5787 12.333 43.768V7.032C12.333 6.17867 12.013 5.53867 11.373 5.112L6.95703 4.856V3H25.901C31.277 3 35.373 4.088 38.189 6.264C41.005 8.44 42.413 11.384 42.413 15.096C42.413 19.064 40.941 22.2 37.997 24.504C35.053 26.808 31.1064 27.96 26.157 27.96H20.205V43.704C20.205 44.5147 20.5464 45.1547 21.229 45.624L26.669 45.944V47.8H6.95703ZM25.005 25.656C27.9064 25.656 30.1464 24.7813 31.725 23.032C33.3037 21.24 34.093 18.7653 34.093 15.608C34.093 12.408 33.2824 9.89067 31.661 8.056C30.0397 6.22133 27.7357 5.304 24.749 5.304H20.205V25.656H25.005Z" fill="url(#paint0_linear_3001_5822)"/>
<defs>
<linearGradient id="paint0_linear_3001_5822" x1="-18.2852" y1="59.7998" x2="-18.2852" y2="-8.20019" gradientUnits="userSpaceOnUse">
<stop offset="0.125" stop-color="#0048F4"/>
<stop offset="0.331731" stop-color="#1A5AF5"/>
<stop offset="0.831731"/>
</linearGradient>
</defs>
</svg>
