<svg width="49" height="64" viewBox="0 0 49 64" fill="none" xmlns="http://www.w3.org/2000/svg">
<path d="M6.41211 47.8V45.944L10.8281 45.688C11.4681 45.2187 11.7881 44.5787 11.7881 43.768V7.032C11.7881 6.17867 11.4681 5.53867 10.8281 5.112L6.41211 4.856V3H25.4841C30.6894 3 34.6574 3.98133 37.3881 5.944C40.1614 7.864 41.5481 10.488 41.5481 13.816C41.5481 16.248 40.7801 18.3387 39.2441 20.088C37.7508 21.7947 35.6174 23.032 32.8441 23.8V24.12C36.2575 24.76 38.9028 26.0827 40.7801 28.088C42.7001 30.0507 43.6601 32.504 43.6601 35.448C43.6601 39.288 42.1668 42.3173 39.1801 44.536C36.2361 46.712 32.0548 47.8 26.6361 47.8H6.41211ZM24.3961 23.16C27.2121 23.16 29.3881 22.392 30.9241 20.856C32.4601 19.32 33.2281 17.144 33.2281 14.328C33.2281 11.4693 32.4601 9.25067 30.9241 7.672C29.3881 6.09333 27.2121 5.304 24.3961 5.304H19.6601V23.16H24.3961ZM25.9321 45.496C28.9188 45.496 31.2228 44.6427 32.8441 42.936C34.5081 41.2293 35.3401 38.84 35.3401 35.768C35.3401 32.4827 34.5081 29.944 32.8441 28.152C31.2228 26.3173 28.9188 25.4 25.9321 25.4H19.6601V45.496H25.9321Z" fill="url(#paint0_linear_3001_5864)"/>
<defs>
<linearGradient id="paint0_linear_3001_5864" x1="64.8574" y1="59.7998" x2="64.8574" y2="-8.20019" gradientUnits="userSpaceOnUse">
<stop offset="0.125" stop-color="#0048F4"/>
<stop offset="0.331731" stop-color="#1A5AF5"/>
<stop offset="0.831731"/>
</linearGradient>
</defs>
</svg>
